<svg width="24" height="24" viewBox="0 0 24 24" fill="none" xmlns="http://www.w3.org/2000/svg">
<g clip-path="url(#clip0_2322_8)">
<path d="M19.9999 7.99942C20.0011 6.45958 19.5579 4.9521 18.7234 3.65795C17.889 2.3638 16.6988 1.33797 15.2957 0.703598C13.8926 0.0692238 12.3362 -0.146734 10.8134 0.0816459C9.29055 0.310026 7.866 0.97304 6.71072 1.9911C5.55544 3.00916 4.71852 4.33901 4.30042 5.821C3.88232 7.303 3.90081 8.87417 4.35367 10.3459C4.80653 11.8177 5.67451 13.1275 6.85343 14.118C8.03235 15.1086 9.47211 15.7379 10.9999 15.9304V18.9994H8.99988C8.73466 18.9994 8.48031 19.1048 8.29277 19.2923C8.10523 19.4799 7.99988 19.7342 7.99988 19.9994C7.99988 20.2646 8.10523 20.519 8.29277 20.7065C8.48031 20.8941 8.73466 20.9994 8.99988 20.9994H10.9999V22.9994C10.9999 23.2646 11.1052 23.519 11.2928 23.7065C11.4803 23.8941 11.7347 23.9994 11.9999 23.9994C12.2651 23.9994 12.5194 23.8941 12.707 23.7065C12.8945 23.519 12.9999 23.2646 12.9999 22.9994V20.9994H14.9999C15.2651 20.9994 15.5194 20.8941 15.707 20.7065C15.8945 20.519 15.9999 20.2646 15.9999 19.9994C15.9999 19.7342 15.8945 19.4799 15.707 19.2923C15.5194 19.1048 15.2651 18.9994 14.9999 18.9994H12.9999V15.9304C14.9314 15.6854 16.7074 14.745 17.9958 13.2853C19.2842 11.8255 19.9966 9.94641 19.9999 7.99942ZM5.99988 7.99942C5.99988 6.81273 6.35177 5.6527 7.01106 4.666C7.67035 3.67931 8.60742 2.91027 9.70377 2.45615C10.8001 2.00202 12.0065 1.8832 13.1704 2.11471C14.3343 2.34622 15.4034 2.91767 16.2425 3.75678C17.0816 4.5959 17.6531 5.665 17.8846 6.82888C18.1161 7.99277 17.9973 9.19917 17.5432 10.2955C17.089 11.3919 16.32 12.329 15.3333 12.9882C14.3466 13.6475 13.1866 13.9994 11.9999 13.9994C10.4091 13.9978 8.88386 13.3652 7.75899 12.2403C6.63411 11.1154 6.00146 9.59023 5.99988 7.99942Z" fill="#FF8096"/>
</g>
<defs>
<clipPath id="clip0_2322_8">
<rect width="24" height="24" fill="white"/>
</clipPath>
</defs>
</svg>
