<svg width="71" height="34" viewBox="0 0 71 34" fill="none" xmlns="http://www.w3.org/2000/svg">
<path d="M33.7031 30.9297C33.7031 31.3672 33.625 31.7734 33.4688 32.1484C33.3125 32.5234 33.0938 32.8516 32.8125 33.1328C32.5469 33.3984 32.2266 33.6094 31.8516 33.7656C31.4766 33.9219 31.0703 34 30.6328 34H8.64844C8.08594 34 7.47656 33.9375 6.82031 33.8125C6.17969 33.6719 5.53906 33.4609 4.89844 33.1797C4.27344 32.8984 3.67188 32.5391 3.09375 32.1016C2.51562 31.6484 2 31.1094 1.54688 30.4844C1.10938 29.8438 0.757812 29.1094 0.492188 28.2812C0.226562 27.4375 0.09375 26.4922 0.09375 25.4453V8.94531C0.09375 8.38281 0.15625 7.78125 0.28125 7.14062C0.421875 6.48438 0.632812 5.84375 0.914062 5.21875C1.19531 4.57813 1.5625 3.96875 2.01562 3.39062C2.46875 2.8125 3.00781 2.30469 3.63281 1.86719C4.27344 1.41406 5.00781 1.05469 5.83594 0.789062C6.66406 0.523438 7.60156 0.390625 8.64844 0.390625H33.4219V6.48438H8.64844C7.85156 6.48438 7.24219 6.69531 6.82031 7.11719C6.39844 7.53906 6.1875 8.16406 6.1875 8.99219V25.4453C6.1875 26.2266 6.39844 26.8359 6.82031 27.2734C7.25781 27.6953 7.86719 27.9062 8.64844 27.9062H27.6094V20.2656H11.3906V14.125H30.6328C31.0703 14.125 31.4766 14.2109 31.8516 14.3828C32.2266 14.5391 32.5469 14.7578 32.8125 15.0391C33.0938 15.3203 33.3125 15.6484 33.4688 16.0234C33.625 16.3828 33.7031 16.7734 33.7031 17.1953V30.9297ZM70.2337 26.6172C70.2337 27.3672 70.1009 28.1719 69.8353 29.0312C69.5853 29.8906 69.1634 30.6875 68.5697 31.4219C67.9916 32.1562 67.2337 32.7734 66.2962 33.2734C65.3587 33.7578 64.2103 34 62.8509 34H39.7181C39.2806 34 38.8744 33.9219 38.4994 33.7656C38.1244 33.6094 37.7962 33.3984 37.515 33.1328C37.2494 32.8516 37.0384 32.5234 36.8822 32.1484C36.7259 31.7734 36.6478 31.3672 36.6478 30.9297V3.46094C36.6478 3.03906 36.7259 2.64062 36.8822 2.26562C37.0384 1.89062 37.2494 1.5625 37.515 1.28125C37.7962 1 38.1244 0.78125 38.4994 0.625C38.8744 0.46875 39.2806 0.390625 39.7181 0.390625H60.1087C60.8587 0.390625 61.6634 0.523438 62.5228 0.789062C63.3822 1.05469 64.1791 1.48438 64.9134 2.07812C65.6634 2.65625 66.2806 3.41406 66.765 4.35156C67.265 5.28906 67.515 6.4375 67.515 7.79688V8.94531C67.515 10.0234 67.3353 11.1875 66.9759 12.4375C66.6166 13.6719 66.0384 14.8438 65.2416 15.9531C65.9291 16.375 66.5697 16.8828 67.1634 17.4766C67.7728 18.0703 68.3041 18.7578 68.7572 19.5391C69.2103 20.3203 69.5697 21.2031 69.8353 22.1875C70.1009 23.1719 70.2337 24.2578 70.2337 25.4453V26.6172ZM64.14 25.4453C64.14 24.6484 64.015 23.9375 63.765 23.3125C63.515 22.6719 63.1634 22.125 62.7103 21.6719C62.2572 21.2188 61.7103 20.875 61.0697 20.6406C60.4291 20.3906 59.7103 20.2656 58.9134 20.2656H45.1791V14.125H56.1712C56.9681 14.125 57.6869 14.0078 58.3275 13.7734C58.9681 13.5234 59.515 13.1719 59.9681 12.7188C60.4212 12.2656 60.765 11.7266 60.9994 11.1016C61.2494 10.4609 61.3744 9.74219 61.3744 8.94531V7.79688C61.3744 6.92188 60.9525 6.48438 60.1087 6.48438H42.7416V27.9062H62.8509C62.9603 27.9062 63.0931 27.8984 63.2494 27.8828C63.4056 27.8672 63.5462 27.8203 63.6712 27.7422C63.7962 27.6641 63.9056 27.5312 63.9994 27.3438C64.0931 27.1562 64.14 26.8984 64.14 26.5703V25.4453Z" fill="black"/>
</svg>
